<svg width="60" height="60" viewBox="0 0 169 169" xmlns="http://www.w3.org/2000/svg">
<path d="M84.5329 46.305C63.6464 46.305 46.7992 63.1521 46.7992 84.0386C46.7992 104.925 63.6464 121.772 84.5329 121.772C105.419 121.772 122.266 104.925 122.266 84.0386C122.266 63.1521 105.419 46.305 84.5329 46.305ZM84.5329 108.57C71.0355 108.57 60.0011 97.5688 60.0011 84.0386C60.0011 70.5083 71.0026 59.5068 84.5329 59.5068C98.0631 59.5068 109.065 70.5083 109.065 84.0386C109.065 97.5688 98.0303 108.57 84.5329 108.57ZM132.611 44.7615C132.611 49.6547 128.67 53.5627 123.81 53.5627C118.917 53.5627 115.009 49.6218 115.009 44.7615C115.009 39.9011 118.95 35.9602 123.81 35.9602C128.67 35.9602 132.611 39.9011 132.611 44.7615ZM157.603 53.6941C157.044 41.9044 154.352 31.4611 145.715 22.8569C137.11 14.2527 126.667 11.5598 114.877 10.9687C102.726 10.279 66.3064 10.279 54.1555 10.9687C42.3986 11.527 31.9554 14.2199 23.3183 22.8241C14.6813 31.4283 12.0213 41.8715 11.4301 53.6612C10.7405 65.8122 10.7405 102.232 11.4301 114.383C11.9884 126.173 14.6813 136.616 23.3183 145.22C31.9554 153.824 42.3658 156.517 54.1555 157.108C66.3064 157.798 102.726 157.798 114.877 157.108C126.667 156.55 137.11 153.857 145.715 145.22C154.319 136.616 157.012 126.173 157.603 114.383C158.292 102.232 158.292 65.845 157.603 53.6941ZM141.905 127.421C139.343 133.857 134.385 138.816 127.915 141.411C118.227 145.253 95.2388 144.366 84.5329 144.366C73.8269 144.366 50.8058 145.22 41.1507 141.411C34.714 138.849 29.7551 133.89 27.1607 127.421C23.3183 117.733 24.205 94.7445 24.205 84.0386C24.205 73.3326 23.3512 50.3115 27.1607 40.6564C29.7222 34.2197 34.6811 29.2608 41.1507 26.6664C50.8386 22.8241 73.8269 23.7108 84.5329 23.7108C95.2388 23.7108 118.26 22.8569 127.915 26.6664C134.352 29.228 139.311 34.1869 141.905 40.6564C145.747 50.3443 144.861 73.3326 144.861 84.0386C144.861 94.7445 145.747 117.766 141.905 127.421Z" />
</svg>
